<svg xmlns="http://www.w3.org/2000/svg" width="55" height="66" viewBox="0 0 55 66" fill="none">
<path d="M24.1796 58.9915C22.9943 59.8117 21.7631 60.6194 20.3658 60.9981C18.9685 61.3769 17.354 61.249 16.2301 60.356C14.7893 59.2022 14.5288 57.1378 14.6974 55.3168C15.0218 51.6095 16.6183 47.9348 15.8903 44.2801C15.6156 42.9608 15.0484 41.717 14.229 40.6371C13.4096 39.5573 12.3581 38.6678 11.1492 38.0319C9.93222 37.4151 8.59191 37.0689 7.22337 37.0177C5.85482 36.9666 4.49158 37.2118 3.23035 37.7359C1.66446 38.4006 0.198195 39.6749 0.0117188 41.3379C0.522613 42.883 2.86506 44.1597 4.42074 44.7015C5.97641 45.2433 7.70579 45.8353 8.48235 47.265C9.15673 48.5067 8.90128 50.0092 8.7378 51.4088C8.47807 53.7839 8.571 56.1835 9.01368 58.5324C9.34576 60.2883 9.90264 62.0717 11.1058 63.4162C12.9859 65.5181 16.11 66.1477 18.9429 65.8492C21.7758 65.5507 24.4504 64.4747 27.1785 63.6745L24.1796 58.9915Z" fill="#ADBFD5"/>
<g opacity="0.5">
<path d="M15.6615 45.6171C15.7784 45.3111 15.874 44.9977 15.9476 44.679C15.9271 44.5469 15.9041 44.4139 15.8786 44.2801C15.6039 42.9608 15.0367 41.717 14.2173 40.6371C13.3979 39.5573 12.3464 38.6678 11.1375 38.0319C9.9205 37.4151 8.58019 37.0689 7.21165 37.0177C5.8431 36.9666 4.47986 37.2118 3.21864 37.7359C1.65274 38.4006 0.186477 39.6749 0 41.3379C0.510895 42.883 2.85335 44.1597 4.40902 44.7015C5.96469 45.2433 7.69407 45.8353 8.47063 47.265C8.92533 48.1028 8.95598 49.0585 8.8819 50.0242C9.16546 50.0617 9.45209 50.0718 9.73765 50.0543C12.3483 49.8963 14.7316 48.0301 15.6615 45.6171Z" fill="white"/>
</g>
<path d="M43.6009 62.6585C44.3672 62.1794 46.0991 62.054 46.9983 61.9537C47.8975 61.8534 48.8759 62.1042 49.4736 62.7714C50.0714 63.4386 50.1735 64.5498 49.563 65.2045C48.8656 65.957 47.2844 65.9419 46.2422 65.9419C43.4323 65.9419 41.7898 65.8892 39.2148 65.9419" fill="#ADBFD5"/>
<path d="M39.2207 65.9419C39.2856 65.9303 39.3514 65.9244 39.4174 65.9244L39.9845 65.9018C40.475 65.8892 41.1851 65.8742 42.0638 65.8717H45.1522C45.7321 65.8717 46.3426 65.8717 46.971 65.8717C47.6168 65.8775 48.2592 65.7774 48.8715 65.5757C49.1706 65.4639 49.4317 65.2718 49.6251 65.0214C49.7991 64.768 49.8965 64.4715 49.9061 64.166C49.9174 63.8761 49.863 63.5873 49.7468 63.3205C49.6307 63.0537 49.4556 62.8156 49.2342 62.6234C48.8206 62.2803 48.3116 62.0671 47.7731 62.0114C47.299 61.977 46.8226 61.9955 46.3528 62.0666C45.6638 62.121 44.9803 62.2301 44.3092 62.3926C44.1286 62.4408 43.9519 62.502 43.7804 62.5758C43.723 62.6077 43.6632 62.6353 43.6016 62.6585C43.6016 62.6585 43.6144 62.646 43.6425 62.6284C43.6706 62.6109 43.7115 62.5833 43.7677 62.5532C43.9362 62.4675 44.1124 62.397 44.2939 62.3425C44.9626 62.161 45.6465 62.0384 46.3375 61.9763C46.8141 61.8971 47.2984 61.8727 47.7807 61.9035C48.3446 61.9569 48.8788 62.1763 49.3134 62.5331C49.5499 62.7364 49.7372 62.9889 49.8618 63.2722C49.9865 63.5556 50.0452 63.8626 50.0338 64.171C50.0246 64.5018 49.9191 64.823 49.7298 65.0966C49.5223 65.368 49.2406 65.5759 48.9175 65.6961C48.2916 65.9045 47.6343 66.0071 46.9735 65.9996C46.3375 65.9996 45.7295 65.9996 45.1471 65.9996L42.0613 65.9645H39.9819H39.4148C39.3497 65.9617 39.2848 65.9542 39.2207 65.9419Z" fill="#263238"/>
<path d="M32.888 26.0044C32.888 26.3405 30.8444 31.2167 25.7814 35.1673C20.7184 39.1179 16.5317 43.7432 16.6185 49.8811C16.7054 56.019 20.5575 62.7463 20.5575 62.7463L24.5399 65.824L39.223 65.9419C39.223 65.9419 45.9873 64.3441 46.843 58.8785C47.6988 53.4128 45.9873 50.8067 45.9873 50.8067L46.2427 45.341C46.2427 45.341 50.266 38.0268 50.524 35.674C50.782 33.3212 48.5545 24.7427 48.5545 24.7427L32.888 26.0044Z" fill="#ADBFD5"/>
<path d="M41.106 41.8722C40.9838 42.4053 40.9553 42.955 41.0217 43.4976C41.1083 44.084 41.2876 44.6535 41.5531 45.1857C41.8762 45.8391 42.2766 46.4529 42.746 47.0143C43.2441 47.6163 43.7678 48.1581 44.2148 48.6597C44.6619 49.1614 45.0757 49.6279 45.3822 50.0418C45.6295 50.3648 45.8523 50.7052 46.0489 51.0602C46.1205 51.1856 46.1639 51.2884 46.1971 51.3562C46.2303 51.4239 46.2431 51.4615 46.238 51.464C46.1513 51.3429 46.0728 51.2164 46.0029 51.0853C45.7914 50.7427 45.5594 50.4127 45.3081 50.097C44.9939 49.6932 44.5878 49.2391 44.1254 48.7425C43.6631 48.2458 43.1445 47.704 42.6413 47.097C42.1668 46.5259 41.7638 45.9011 41.4407 45.2359C41.1772 44.6912 41.0047 44.1086 40.9298 43.5101C40.8805 43.1062 40.8977 42.6971 40.9809 42.2986C41.0015 42.1904 41.0305 42.0839 41.0677 41.98C41.0757 41.9426 41.0886 41.9064 41.106 41.8722Z" fill="#263238"/>
<path d="M46.6057 53.0216C46.6321 53.0695 46.6535 53.1199 46.6696 53.1721C46.7053 53.2724 46.7666 53.4229 46.8228 53.6161C46.9904 54.1652 47.1092 54.7274 47.1779 55.2967C47.282 56.1431 47.282 56.9987 47.1779 57.8451C47.1191 58.3463 47.0191 58.8421 46.879 59.3275C46.7343 59.8467 46.5384 60.3507 46.2941 60.8325C46.0482 61.3178 45.7557 61.779 45.4204 62.2096C45.1042 62.6071 44.7557 62.9787 44.3782 63.3208C43.7358 63.896 43.0206 64.3875 42.2503 64.7831C41.7342 65.0514 41.1958 65.2763 40.641 65.4554C40.4469 65.5231 40.2911 65.5607 40.1863 65.5908C40.1343 65.6087 40.0802 65.6205 40.0254 65.6259C40.0744 65.601 40.1257 65.5809 40.1787 65.5657C40.2808 65.5256 40.4341 65.483 40.6257 65.4077C41.1695 65.2099 41.698 64.9735 42.2069 64.7004C42.9629 64.2985 43.6648 63.8056 44.2965 63.233C44.6652 62.8921 45.0068 62.524 45.3183 62.1318C45.6461 61.7068 45.9326 61.2524 46.174 60.7748C46.4161 60.297 46.6103 59.7971 46.7539 59.2824C46.8939 58.8069 46.9955 58.3213 47.0579 57.8301C47.1678 56.992 47.1764 56.1442 47.0834 55.3042C47.0259 54.7375 46.9217 54.1763 46.7718 53.6261C46.7258 53.4305 46.6721 53.2825 46.644 53.1796C46.6273 53.128 46.6145 53.0751 46.6057 53.0216Z" fill="#263238"/>
<path d="M24.7946 65.814C24.6671 65.7721 24.5432 65.7201 24.4242 65.6585C24.28 65.5948 24.1394 65.5236 24.0028 65.4453C23.8418 65.355 23.6528 65.2597 23.4612 65.1293C23.2696 64.9988 23.0499 64.8784 22.8328 64.7054C22.6157 64.5323 22.3883 64.3592 22.1508 64.1661C21.1436 63.296 20.305 62.2541 19.6755 61.0909C19.5375 60.82 19.4022 60.5641 19.3 60.3133C19.1978 60.0624 19.1007 59.8317 19.0241 59.616C18.9475 59.4003 18.8913 59.1996 18.8376 59.0265C18.7924 58.8771 18.7549 58.7256 18.7252 58.5725C18.6913 58.445 18.6683 58.315 18.6562 58.1837C18.708 58.3061 18.7482 58.4329 18.7763 58.5625C18.807 58.6854 18.8504 58.8359 18.9091 59.0064C18.9679 59.177 19.0241 59.3752 19.1135 59.5859C19.2029 59.7966 19.2846 60.0298 19.4022 60.2706C19.5197 60.5114 19.6576 60.7723 19.7828 61.0231C20.1038 61.5927 20.4694 62.137 20.8761 62.651C21.2897 63.1584 21.7432 63.6331 22.2325 64.0708C22.465 64.2664 22.6795 64.457 22.8992 64.6126C23.1189 64.7681 23.3207 64.9211 23.5123 65.049C23.7039 65.1769 23.8827 65.2798 24.0385 65.3776C24.1943 65.4754 24.3323 65.5482 24.4472 65.6084C24.5692 65.6664 24.6855 65.7352 24.7946 65.814Z" fill="#263238"/>
<path d="M31.6194 48.4967C31.5289 48.4488 31.4434 48.3925 31.3639 48.3286C31.2081 48.2132 30.9858 48.0351 30.7176 47.7993C29.9975 47.1587 29.3585 46.4353 28.8145 45.6447L28.9295 45.592L29.42 47.1397L29.7904 48.2985L29.8491 48.4891L29.6882 48.3687C28.8349 47.7219 28.172 46.864 27.7672 45.883C27.6504 45.5976 27.5581 45.3031 27.4913 45.0026C27.4683 44.8972 27.4581 44.8144 27.4479 44.7517C27.4377 44.689 27.4479 44.6664 27.4479 44.6639C27.485 44.7682 27.5157 44.8746 27.5399 44.9825C27.6228 45.2762 27.7269 45.5637 27.8515 45.8428C28.2708 46.7962 28.9322 47.6279 29.7725 48.2584L29.6703 48.3286C29.5528 47.9574 29.431 47.5719 29.305 47.1723C29.1339 46.6305 28.9704 46.1062 28.8171 45.6246L28.6894 45.2108L28.932 45.5694C29.4656 46.3563 30.0858 47.0831 30.7815 47.7366C31.0369 47.9875 31.2541 48.1656 31.4022 48.291C31.4806 48.3532 31.5532 48.422 31.6194 48.4967Z" fill="#263238"/>
<g opacity="0.3">
<path d="M40.9807 42.1807C41.0165 41.9298 41.4252 41.9298 41.5657 42.1481C41.6712 42.374 41.7007 42.627 41.65 42.8704C41.5632 44.3152 42.4802 45.6296 43.4382 46.7258C44.3961 47.8219 45.4562 48.9481 45.7627 50.3628C44.9964 49.4975 44.0972 48.7675 43.2568 47.9774C42.4164 47.1873 41.6245 46.3119 41.1672 45.2609C40.71 44.2099 40.6231 42.9532 41.1672 41.9474" fill="black"/>
</g>
<g opacity="0.3">
<path d="M40.8516 65.3676C42.0266 65.4103 43.24 65.2949 44.2848 64.7631C45.3296 64.2314 46.1751 63.2255 46.2517 62.0742L45.3704 62.1118C44.2411 63.5594 42.7101 64.656 40.9614 65.2698" fill="black"/>
</g>
<path d="M42.7656 6.37427C42.7656 6.37427 36.3794 7.3475 35.0153 7.87926C33.6512 8.41103 28.0621 11.2505 27.1833 13.9544C27.1833 13.9544 26.7465 17.002 28.1183 20.752C28.6164 22.119 32.6703 26.7444 33.6334 27.2736C34.5964 27.8029 48.7048 25.3422 48.7048 25.3422C49.5528 24.2135 51.9924 20.2905 51.9719 17.3507C51.9464 13.661 50.6002 9.51218 50.6002 9.51218L42.7656 6.37427Z" fill="#ADBFD5"/>
<path d="M47.6803 0.00313654C47.5423 -0.0194384 45.8462 0.00313464 44.5562 2.87015C43.765 4.61937 42.8509 6.3124 41.8203 7.93697L50.6332 9.94363C50.6332 9.94363 50.1402 5.26811 49.6523 3.63519C49.1644 2.00227 48.6663 0.161161 47.6803 0.00313654Z" fill="#ADBFD5"/>
<g opacity="0.6">
<path d="M44.9593 17.7972C42.1111 16.7011 38.8286 17.1877 36.0519 18.4268C34.5013 19.1166 32.9865 20.1149 32.2866 21.6425C31.155 24.1508 32.6928 27.1182 34.8411 28.8539C36.9894 30.5897 39.6946 31.5303 42.0242 33.0403C44.3539 34.5503 46.4154 37.006 46.1114 39.7275L46.2493 45.3211C46.4792 44.9022 50.2701 37.9566 50.5204 35.6741C50.7375 33.6674 49.1512 27.1332 48.6812 25.2545C48.8856 25.0037 49.2074 24.4794 49.5906 23.9828C49.634 21.2713 47.57 18.8056 44.9593 17.7972Z" fill="white"/>
</g>
<path d="M42.0094 16.7237C42.0272 16.6609 42.0309 16.5951 42.0202 16.5309C42.0096 16.4666 41.9848 16.4054 41.9476 16.3514C41.9104 16.2975 41.8617 16.2522 41.8049 16.2185C41.7481 16.1849 41.6845 16.1639 41.6186 16.1568C40.895 16.068 40.1603 16.1675 39.4882 16.4453C39.4124 16.4664 39.3421 16.5034 39.2822 16.5536C39.2223 16.6038 39.174 16.6661 39.1407 16.7362C39.1262 16.8149 39.1317 16.8959 39.1566 16.972C39.1816 17.0481 39.2253 17.1171 39.2838 17.1727C39.4559 17.3759 39.6775 17.5333 39.9279 17.6303C40.1784 17.7272 40.4497 17.7606 40.7168 17.7274C40.9839 17.6941 41.2381 17.5953 41.456 17.44C41.6739 17.2848 41.8484 17.0781 41.9634 16.8391C41.9814 16.8017 41.9968 16.7631 42.0094 16.7237Z" fill="#263238"/>
<path d="M42.2358 19.844C42.1456 19.9674 42.0314 20.0721 41.8999 20.1521C41.7684 20.2322 41.6222 20.286 41.4695 20.3105C41.3219 20.3573 41.1663 20.3744 41.0119 20.3611C40.8574 20.3477 40.7073 20.3041 40.5703 20.2328C40.8607 20.2466 41.1518 20.2306 41.4388 20.1851C41.7157 20.0985 41.9828 19.9842 42.2358 19.844Z" fill="#263238"/>
<path d="M27.3414 14.5263C27.3414 14.5263 24.3348 4.29485 25.6171 3.43199C26.8995 2.56912 28.0796 3.59001 28.0796 3.59001L34.7187 8.53643L27.3414 14.5263Z" fill="#ADBFD5"/>
<g opacity="0.6">
<path d="M28.1733 12.4594C29.3083 10.9157 30.8128 9.67 32.5542 8.83241L27.9945 5.32075C27.903 5.22703 27.7919 5.15384 27.6689 5.10622C27.5459 5.05859 27.4138 5.03765 27.2818 5.04484C27.1627 5.08571 27.0569 5.15698 26.9752 5.25132C26.8935 5.34566 26.8388 5.45967 26.8169 5.58162C26.6483 6.20117 26.8169 7.20701 26.9497 7.83911C27.3175 9.4921 27.716 11.0774 28.1733 12.4695" fill="white"/>
</g>
<g opacity="0.6">
<path d="M49.1252 8.60676C47.5046 7.69542 45.6811 7.18815 43.8145 7.12935C44.6762 5.50897 45.5362 3.8886 46.3945 2.26822C46.512 2.04498 46.6627 1.79916 46.9054 1.749C47.026 1.73841 47.1473 1.75956 47.2568 1.81025C47.3664 1.86095 47.4602 1.93937 47.5287 2.03745C47.9297 2.51654 48.1903 3.46218 48.3231 4.0692C48.668 5.66198 48.9643 7.2046 49.1201 8.60676" fill="white"/>
</g>
<path d="M49.9889 23.1976C49.9729 23.2502 49.9524 23.3014 49.9276 23.3506C49.8765 23.461 49.8101 23.6015 49.7258 23.7796C49.464 24.3002 49.1454 24.7913 48.7756 25.2444C48.2123 25.9103 47.5247 26.4645 46.7499 26.8773C46.5302 26.9877 46.2977 27.0931 46.0576 27.1884C45.8073 27.2865 45.5515 27.3703 45.2913 27.4392C45.0261 27.507 44.7575 27.5615 44.4866 27.6023C44.2053 27.6389 43.9222 27.6615 43.6385 27.67C43.1352 27.6848 42.6317 27.647 42.1365 27.5571L42.1748 27.4342C42.8761 27.729 43.5095 28.1599 44.037 28.7009L44.1315 28.7987H43.9936C42.9059 28.8042 41.8247 28.6347 40.7928 28.2971C40.5029 28.203 40.2181 28.0941 39.9396 27.971C39.8426 27.9283 39.7685 27.8907 39.72 27.8681C39.6944 27.857 39.6703 27.8427 39.6484 27.8255C39.752 27.857 39.8536 27.8946 39.9524 27.9384C40.1491 28.0136 40.4403 28.119 40.8133 28.2318C41.8433 28.5418 42.9164 28.6916 43.9936 28.6758L43.9502 28.7736C43.4316 28.2482 42.8104 27.8311 42.1237 27.5471L41.5541 27.3113L42.162 27.4242C42.6481 27.5112 43.1422 27.5474 43.636 27.532C43.917 27.532 44.1954 27.4944 44.4662 27.4668C44.7331 27.4283 44.9975 27.3747 45.2581 27.3063C45.511 27.2433 45.76 27.1663 46.004 27.0755C46.239 26.9827 46.4689 26.8799 46.686 26.772C47.4504 26.3704 48.1321 25.8329 48.6964 25.1867C49.0681 24.7433 49.3949 24.2653 49.6722 23.7595C49.7642 23.5889 49.8382 23.451 49.8944 23.3431C49.9211 23.2918 49.9528 23.2431 49.9889 23.1976Z" fill="#263238"/>
<path d="M46.1431 38.9675C46.1667 39.0629 46.1804 39.1604 46.184 39.2585C46.2019 39.4466 46.2198 39.72 46.2402 40.0561C46.2785 40.7309 46.3117 41.6615 46.327 42.6899C46.3424 43.7183 46.327 44.6489 46.327 45.3236C46.327 45.6597 46.3066 45.9332 46.2938 46.1213C46.2947 46.2201 46.2836 46.3186 46.2606 46.4147C46.2423 46.318 46.2354 46.2196 46.2402 46.1213C46.2402 45.9056 46.2402 45.6372 46.2402 45.3236C46.2402 44.6188 46.2223 43.7033 46.2121 42.6899C46.2019 41.6765 46.1763 40.7635 46.1636 40.0612C46.1636 39.7451 46.1636 39.4792 46.1482 39.261C46.1348 39.1637 46.1331 39.0652 46.1431 38.9675Z" fill="#263238"/>
<path d="M36.4128 16.1343C36.4128 16.3586 36.345 16.5779 36.218 16.7644C36.091 16.9509 35.9105 17.0962 35.6994 17.182C35.4883 17.2677 35.256 17.29 35.0319 17.246C34.8079 17.2021 34.6022 17.0939 34.4408 16.9351C34.2794 16.7762 34.1697 16.574 34.1254 16.3539C34.0811 16.1338 34.1044 15.9058 34.1921 15.6986C34.2799 15.4915 34.4283 15.3146 34.6185 15.1903C34.8087 15.0661 35.0322 15 35.2607 15.0005C35.5665 15.0012 35.8595 15.1209 36.0755 15.3334C36.2915 15.546 36.4128 15.834 36.4128 16.1343Z" fill="#263238"/>
<path d="M46.1706 14.4009C46.1711 14.6252 46.1038 14.8447 45.9772 15.0315C45.8507 15.2183 45.6705 15.364 45.4596 15.4502C45.2486 15.5364 45.0164 15.5592 44.7923 15.5157C44.5681 15.4722 44.3621 15.3645 44.2004 15.206C44.0387 15.0475 43.9285 14.8455 43.8837 14.6255C43.8389 14.4055 43.8617 14.1774 43.949 13.9701C44.0363 13.7628 44.1843 13.5856 44.3742 13.4609C44.5641 13.3362 44.7875 13.2697 45.0159 13.2697C45.3217 13.2697 45.615 13.3888 45.8315 13.6008C46.0479 13.8129 46.1699 14.1006 46.1706 14.4009Z" fill="#263238"/>
<path d="M44.2608 17.0121C44.2732 17.1422 44.2645 17.2734 44.2352 17.4009C44.1807 17.7546 44.0584 18.0951 43.875 18.4042C43.8141 18.51 43.7374 18.6064 43.6477 18.6902C43.5467 18.776 43.4341 18.8478 43.313 18.9034C43.0398 19.0285 42.7282 19.0464 42.442 18.9535C42.2888 18.9099 42.1439 18.8421 42.0128 18.7529C41.8748 18.6677 41.7426 18.5739 41.6169 18.4719C41.3516 18.2581 41.1125 18.0149 40.9042 17.747L41.0217 17.7244L41.0012 17.7922C40.9188 18.1158 40.7694 18.4192 40.5624 18.6838C40.3554 18.9483 40.0953 19.1682 39.7981 19.3298C39.5299 19.4655 39.2269 19.5205 38.927 19.4878C38.6709 19.4578 38.4248 19.3721 38.2067 19.237C37.8977 19.0345 37.6442 18.7606 37.4684 18.4393C37.4222 18.3532 37.3813 18.2644 37.3458 18.1734C37.3228 18.1107 37.3126 18.0756 37.3177 18.0756C37.3228 18.0756 37.3816 18.201 37.5144 18.4142C37.6978 18.7195 37.9526 18.9775 38.2577 19.1667C38.4641 19.2943 38.6974 19.3741 38.9398 19.4C39.2168 19.4253 39.4954 19.3713 39.7419 19.2445C40.0215 19.0874 40.2658 18.8764 40.4603 18.6242C40.6547 18.3721 40.7953 18.0839 40.8735 17.7771L40.8914 17.7119L40.9297 17.5865L41.0089 17.6893C41.2123 17.9472 41.4436 18.1827 41.6986 18.3917C41.8196 18.4912 41.9467 18.5834 42.0792 18.6676C42.1995 18.7524 42.3333 18.8168 42.4752 18.8582C42.7183 18.9368 42.9814 18.932 43.2214 18.8445C43.4613 18.757 43.6639 18.592 43.7958 18.3766C43.9794 18.0801 44.1107 17.7553 44.1841 17.4159C44.2403 17.15 44.2505 17.0121 44.2608 17.0121Z" fill="#263238"/>
<g opacity="0.6">
<path d="M39.1898 6.96619L37.5703 7.26718C37.6842 7.9299 37.9224 8.5661 38.2728 9.14341C38.3954 9.34659 38.5819 9.56732 38.822 9.54976C38.8924 9.54118 38.9599 9.51651 39.0189 9.47775C39.0779 9.43898 39.1268 9.38719 39.1617 9.32652C39.2325 9.20511 39.2784 9.07136 39.2971 8.93271C39.4137 8.2777 39.377 7.60523 39.1898 6.96619Z" fill="white"/>
</g>
<path d="M54.1154 18.7002C54.0051 18.6905 53.8963 18.6686 53.791 18.635L52.9199 18.4218C52.1842 18.2437 51.1625 18.0255 50.0206 17.8449C48.8788 17.6643 47.8391 17.5665 47.083 17.5113L46.1889 17.4486C46.0782 17.4465 45.9679 17.4348 45.8594 17.4135C45.9682 17.3954 46.0787 17.3896 46.1889 17.3959C46.4009 17.3959 46.6998 17.3959 47.0881 17.4185C49.0679 17.5112 51.0313 17.8174 52.9429 18.3315C53.3108 18.4318 53.6045 18.5171 53.8063 18.5823C53.9133 18.6109 54.0169 18.6505 54.1154 18.7002Z" fill="#263238"/>
<path d="M54.9988 16.6484C54.8846 16.6644 54.769 16.6686 54.6539 16.661H53.719C52.9271 16.661 51.8363 16.661 50.6306 16.6835C49.4249 16.7061 48.3316 16.7763 47.5448 16.824L46.6124 16.8817C46.4977 16.8916 46.3823 16.8916 46.2676 16.8817C46.3782 16.8498 46.4922 16.8304 46.6073 16.824C46.827 16.7964 47.1438 16.7613 47.5397 16.7237C48.3265 16.6509 49.4198 16.5782 50.6281 16.5456C51.8363 16.513 52.9271 16.5305 53.7215 16.5631C54.1149 16.5782 54.4368 16.5957 54.6565 16.6133C54.7714 16.6142 54.8861 16.6259 54.9988 16.6484Z" fill="#263238"/>
<path d="M54.9016 21.6274C54.7869 21.58 54.6766 21.5229 54.572 21.4568C54.3651 21.3364 54.0611 21.1683 53.6882 20.9551C52.712 20.4259 51.7075 19.9486 50.679 19.5254C49.6473 19.1129 48.5942 18.7537 47.5242 18.4493C47.1155 18.3314 46.7809 18.2411 46.5484 18.1784C46.427 18.1531 46.3081 18.117 46.1934 18.0706C46.3177 18.0783 46.441 18.0985 46.5612 18.1308C46.7962 18.1759 47.136 18.2537 47.5498 18.3615C49.7168 18.9287 51.7961 19.78 53.7316 20.8924C54.102 21.1056 54.3983 21.2887 54.595 21.4192C54.7034 21.4793 54.806 21.5489 54.9016 21.6274Z" fill="#263238"/>
<path d="M34.7545 20.175C34.6679 20.2459 34.5737 20.3073 34.4735 20.3582L33.6995 20.8272C33.0354 21.221 32.126 21.7779 31.1451 22.43C30.1641 23.0822 29.3007 23.7068 28.6825 24.1658L27.9366 24.7201C27.8507 24.7922 27.7574 24.8552 27.6582 24.9083C27.735 24.8237 27.8207 24.7472 27.9137 24.68C28.0771 24.5395 28.3198 24.3414 28.6212 24.1006C29.2267 23.6215 30.085 22.9844 31.0684 22.3297C32.0519 21.675 32.9715 21.1282 33.6484 20.7545C33.9882 20.5663 34.2641 20.4184 34.4582 20.323C34.5521 20.2649 34.6513 20.2153 34.7545 20.175Z" fill="#263238"/>
<path d="M34.572 19.2896C34.5392 19.3144 34.5031 19.3346 34.4647 19.3497L34.1454 19.4977L32.9677 20.022C31.9741 20.466 30.6023 21.088 29.1054 21.8029C27.6085 22.5178 26.2623 23.1925 25.2916 23.6841L24.142 24.2686L23.8278 24.4241C23.7919 24.4445 23.7532 24.4597 23.7129 24.4692C23.7438 24.4423 23.7781 24.4196 23.8151 24.4015L24.1165 24.2234C24.3719 24.0729 24.7679 23.8597 25.2481 23.6039C26.2061 23.0897 27.5472 22.4024 29.0466 21.685C30.5461 20.9676 31.9255 20.3606 32.9294 19.9292C33.4403 19.716 33.8414 19.5504 34.1249 19.44L34.4519 19.3146C34.4903 19.2999 34.5308 19.2915 34.572 19.2896Z" fill="#263238"/>
<path d="M33.1555 18.9159C33.0231 18.9669 32.8863 19.0064 32.7468 19.0338C32.4914 19.099 32.1005 19.1968 31.6305 19.3222C30.6905 19.5731 29.3979 19.9568 28.0057 20.466C26.6135 20.9752 25.3797 21.5195 24.501 21.9334C24.0616 22.1416 23.7065 22.3147 23.4639 22.4351C23.3402 22.5027 23.2112 22.5606 23.0781 22.6081C23.1928 22.5258 23.3141 22.4528 23.4409 22.3899C23.6759 22.2545 24.0233 22.0714 24.4626 21.8506C26.7397 20.7187 29.1389 19.8412 31.6152 19.2345C32.0903 19.1191 32.476 19.0338 32.7442 18.9836C32.8797 18.9521 33.017 18.9295 33.1555 18.9159Z" fill="#263238"/>
<path d="M46.8609 3.87598C46.889 3.95715 46.907 4.04138 46.9145 4.12681C46.9375 4.29988 46.963 4.54821 46.9784 4.85924C47.0171 5.68018 46.9571 6.50274 46.7996 7.30987L46.7663 7.48295L46.6769 7.32744C46.6207 7.23212 46.562 7.12677 46.5007 7.02393L45.5887 5.43114L45.696 5.41609C45.5827 5.87665 45.5168 6.34724 45.4993 6.82075C45.4866 7.16439 45.4993 7.36255 45.4814 7.36506C45.4659 7.31887 45.4573 7.27071 45.4559 7.22209C45.4396 7.0889 45.4311 6.9549 45.4304 6.82075C45.4231 6.33987 45.4746 5.85987 45.5836 5.39101L45.6168 5.24803L45.6909 5.37596L46.6156 6.95871L46.7919 7.26473L46.6693 7.28479C46.8248 6.48635 46.8984 5.67461 46.889 4.86175C46.8813 4.25474 46.8404 3.87848 46.8609 3.87598Z" fill="#263238"/>
<path d="M30.1228 9.47206C29.801 8.99704 29.4313 8.55502 29.0193 8.15268L29.1189 8.11756C29.0729 8.54398 29.0193 9.02056 28.9631 9.52975C28.9631 9.59748 28.9478 9.6652 28.9401 9.72791L28.9146 9.96369L28.8149 9.74798C28.4701 8.99548 28.1661 8.32827 27.9541 7.84165C27.8285 7.5844 27.7218 7.31867 27.6348 7.04651C27.7892 7.28653 27.9242 7.53815 28.0384 7.79901C28.2708 8.27559 28.5876 8.9428 28.935 9.69029L28.8098 9.71035L28.8328 9.50969C28.8916 9.00802 28.9503 8.52392 29.0014 8.10001V7.98212L29.0883 8.06489C29.394 8.35719 29.6625 8.68483 29.8878 9.04063C29.9877 9.17208 30.0669 9.31751 30.1228 9.47206Z" fill="#263238"/>
</svg>